<svg width="21" height="21" viewBox="0 0 21 21" fill="none" xmlns="http://www.w3.org/2000/svg">
<path d="M12.4167 7.9125V10.6917H14.9083C15.1 10.6917 15.1958 10.8833 15.1958 11.075L14.8125 12.8958C14.8125 12.9917 14.6208 13.0875 14.525 13.0875H12.4167V20.0833H9.54167V13.1833H7.9125C7.72083 13.1833 7.625 13.0875 7.625 12.8958V11.075C7.625 10.8833 7.72083 10.7875 7.9125 10.7875H9.54167V7.625C9.54167 5.99583 10.7875 4.75 12.4167 4.75H15.0042C15.1958 4.75 15.2917 4.84583 15.2917 5.0375V7.3375C15.2917 7.52917 15.1958 7.625 15.0042 7.625H12.7042C12.5125 7.625 12.4167 7.72083 12.4167 7.9125Z" stroke="white" stroke-width="1.5" stroke-miterlimit="10" stroke-linecap="round"/>
<path d="M13.3753 20.0833H7.62533C2.83366 20.0833 0.916992 18.1667 0.916992 13.375V7.62499C0.916992 2.83332 2.83366 0.916656 7.62533 0.916656H13.3753C18.167 0.916656 20.0837 2.83332 20.0837 7.62499V13.375C20.0837 18.1667 18.167 20.0833 13.3753 20.0833Z" stroke="white" stroke-width="1.5" stroke-linecap="round" stroke-linejoin="round"/>
</svg>
