<svg width="23" height="23" viewBox="0 0 23 23" fill="none" xmlns="http://www.w3.org/2000/svg">
<path d="M13.4167 8.9125V11.6917H15.9083C16.1 11.6917 16.1958 11.8833 16.1958 12.075L15.8125 13.8958C15.8125 13.9917 15.6208 14.0875 15.525 14.0875H13.4167V21.0833H10.5417V14.1833H8.9125C8.72083 14.1833 8.625 14.0875 8.625 13.8958V12.075C8.625 11.8833 8.72083 11.7875 8.9125 11.7875H10.5417V8.625C10.5417 6.99583 11.7875 5.75 13.4167 5.75H16.0042C16.1958 5.75 16.2917 5.84583 16.2917 6.0375V8.3375C16.2917 8.52917 16.1958 8.625 16.0042 8.625H13.7042C13.5125 8.625 13.4167 8.72083 13.4167 8.9125Z" stroke="black" stroke-width="1.5" stroke-miterlimit="10" stroke-linecap="round"/>
<path d="M14.3748 21.0832H8.62484C3.83317 21.0832 1.9165 19.1665 1.9165 14.3748V8.62484C1.9165 3.83317 3.83317 1.9165 8.62484 1.9165H14.3748C19.1665 1.9165 21.0832 3.83317 21.0832 8.62484V14.3748C21.0832 19.1665 19.1665 21.0832 14.3748 21.0832Z" stroke="black" stroke-width="1.5" stroke-linecap="round" stroke-linejoin="round"/>
</svg>
