<svg width="21" height="21" viewBox="0 0 21 21" fill="none" xmlns="http://www.w3.org/2000/svg">
<path d="M7.62533 20.0833H13.3753C18.167 20.0833 20.0837 18.1667 20.0837 13.375V7.62499C20.0837 2.83332 18.167 0.916656 13.3753 0.916656H7.62533C2.83366 0.916656 0.916992 2.83332 0.916992 7.62499V13.375C0.916992 18.1667 2.83366 20.0833 7.62533 20.0833Z" stroke="white" stroke-width="1.5" stroke-linecap="round" stroke-linejoin="round"/>
<path d="M10.4997 13.8542C10.9402 13.8542 11.3763 13.7674 11.7833 13.5989C12.1902 13.4303 12.56 13.1832 12.8714 12.8718C13.1829 12.5603 13.43 12.1905 13.5985 11.7836C13.7671 11.3766 13.8538 10.9405 13.8538 10.5C13.8538 10.0595 13.7671 9.62337 13.5985 9.21643C13.43 8.80948 13.1829 8.43972 12.8714 8.12826C12.56 7.81679 12.1902 7.56973 11.7833 7.40116C11.3763 7.2326 10.9402 7.14584 10.4997 7.14584C9.61009 7.14584 8.75695 7.49923 8.12792 8.12826C7.49889 8.75728 7.14551 9.61043 7.14551 10.5C7.14551 11.3896 7.49889 12.2427 8.12792 12.8718C8.75695 13.5008 9.61009 13.8542 10.4997 13.8542Z" stroke="white" stroke-width="1.5" stroke-linecap="round" stroke-linejoin="round"/>
<path d="M15.9014 5.70834H15.9134" stroke="white" stroke-width="2" stroke-linecap="round" stroke-linejoin="round"/>
</svg>
