<svg width="23" height="23" viewBox="0 0 23 23" fill="none" xmlns="http://www.w3.org/2000/svg">
<path d="M8.62484 21.0832H14.3748C19.1665 21.0832 21.0832 19.1665 21.0832 14.3748V8.62484C21.0832 3.83317 19.1665 1.9165 14.3748 1.9165H8.62484C3.83317 1.9165 1.9165 3.83317 1.9165 8.62484V14.3748C1.9165 19.1665 3.83317 21.0832 8.62484 21.0832Z" stroke="black" stroke-width="1.5" stroke-linecap="round" stroke-linejoin="round"/>
<path d="M11.5002 14.8543C11.9406 14.8543 12.3768 14.7676 12.7837 14.599C13.1907 14.4304 13.5605 14.1834 13.8719 13.8719C14.1834 13.5605 14.4304 13.1907 14.599 12.7837C14.7676 12.3768 14.8543 11.9406 14.8543 11.5002C14.8543 11.0597 14.7676 10.6235 14.599 10.2166C14.4304 9.80963 14.1834 9.43987 13.8719 9.12841C13.5605 8.81695 13.1907 8.56988 12.7837 8.40132C12.3768 8.23275 11.9406 8.146 11.5002 8.146C10.6106 8.146 9.75744 8.49938 9.12841 9.12841C8.49938 9.75744 8.146 10.6106 8.146 11.5002C8.146 12.3897 8.49938 13.2429 9.12841 13.8719C9.75744 14.5009 10.6106 14.8543 11.5002 14.8543Z" stroke="black" stroke-width="1.5" stroke-linecap="round" stroke-linejoin="round"/>
<path d="M16.9014 6.7085H16.9134" stroke="black" stroke-width="2" stroke-linecap="round" stroke-linejoin="round"/>
</svg>
