<svg width="18" height="18" viewBox="0 0 18 18" fill="none" xmlns="http://www.w3.org/2000/svg">
<g clip-path="url(#clip0_66_696)">
<path d="M16.5 6.75014V11.2501C16.5 13.1251 16.125 14.4376 15.285 15.2851L10.5 10.5001L16.2975 4.70264C16.4325 5.29514 16.5 5.97014 16.5 6.75014Z" stroke="black" stroke-width="1.5" stroke-linecap="round" stroke-linejoin="round"/>
<path d="M16.2975 4.7025L4.7025 16.2975C2.445 15.78 1.5 14.22 1.5 11.25V6.75C1.5 3 3 1.5 6.75 1.5H11.25C14.22 1.5 15.78 2.445 16.2975 4.7025Z" stroke="black" stroke-width="1.5" stroke-linecap="round" stroke-linejoin="round"/>
<path d="M15.2851 15.285C14.4376 16.125 13.1251 16.5 11.2501 16.5H6.75014C5.97014 16.5 5.29514 16.4325 4.70264 16.2975L10.5001 10.5L15.2851 15.285Z" stroke="black" stroke-width="1.5" stroke-linecap="round" stroke-linejoin="round"/>
<path d="M4.67995 5.98504C5.18995 3.78754 8.48995 3.78754 8.99995 5.98504C9.29245 7.27504 8.48245 8.37004 7.76995 9.04504C7.51904 9.2835 7.18611 9.41647 6.83995 9.41647C6.4938 9.41647 6.16087 9.2835 5.90995 9.04504C5.19745 8.37004 4.37995 7.27504 4.67995 5.98504Z" stroke="black" stroke-width="1.5"/>
<path d="M6.82129 6.5249H6.83029" stroke="black" stroke-width="2" stroke-linecap="round" stroke-linejoin="round"/>
</g>
<defs>
<clipPath id="clip0_66_696">
<rect width="18" height="18" fill="white"/>
</clipPath>
</defs>
</svg>
