<svg width="167" height="89" viewBox="0 0 167 89" fill="none" xmlns="http://www.w3.org/2000/svg">
<path d="M49.0172 77.8418L38.0068 88.28H41.3596L44.0708 85.764H54.0877L56.8196 88.28H60.131L49.0172 77.8418ZM52.0802 83.9134H46.0162L49.0792 80.8776L52.0802 83.9134ZM138.073 77.8418L127.104 88.28H130.456L133.147 85.764H143.205L145.896 88.28H149.249L138.073 77.8418ZM141.156 83.9134H135.03L138.135 80.8776L141.156 83.9134ZM12.9231 74.6397V85.2442C12.8403 85.9927 12.178 86.5126 11.4123 86.4294H4.29279C4.00304 86.4294 3.7133 86.3462 3.44425 86.1799C3.32007 86.0967 3.27868 85.9303 3.27868 85.764V84.9947H0.0914709V86.8452C0.0500786 87.5106 0.505394 88.1136 1.22976 88.28H12.1573C13.2542 88.3631 14.3718 87.9473 15.1376 87.0948C15.5515 86.5126 15.7585 85.8264 15.7585 85.161V74.6397H12.9231ZM35.2749 80.2122V78.3616H21.2843V88.3008H35.2749V86.4502H24.1404V83.851H35.2749V82.0004H24.1404V80.2122H35.2749ZM159.762 86.5125C160.756 86.5957 161.604 86.4294 162.618 86.1799C163.281 86.0967 163.798 85.5977 163.964 84.9115V78.3408H166.82V85.4937C166.82 87.0116 164.978 87.5938 164.315 87.8433C162.639 88.2592 160.963 88.4255 159.286 88.3423C157.61 88.4255 155.933 88.2592 154.34 87.8433C153.76 87.5938 151.918 87.0948 151.918 85.4937V78.3408H154.774V84.9115C154.94 85.5769 155.437 86.0967 156.12 86.263C157.03 86.4294 157.962 86.5957 158.976 86.5957H159.824L159.762 86.5125ZM124.248 80.2122V78.3616H110.257V88.3008H124.248V86.4502H113.113V83.851H124.248V82.0004H113.113V80.2122H124.248ZM78.1366 78.3616V85.3481L62.3041 77.925V88.28H65.1601V81.4598L80.9513 88.6958V78.3408H78.1366V78.3616ZM101.627 78.3616V85.3481L85.7942 77.925V88.28H88.6503V81.4598L104.483 88.6958V78.3408H101.627V78.3616ZM117.045 34.5921L95.3765 29.1235L102.455 15.2337L88.5882 22.3033L83.1451 0.491333L77.7434 22.2825L63.7942 15.1297L70.9137 29.1027L49.2241 34.5921L70.9137 40.0607L63.877 53.9505L77.7434 46.8808L83.1451 68.672L88.5882 46.8808L102.455 53.9505L95.3765 40.0607L117.045 34.5921ZM101.378 16.2317L94.3003 28.8532L89.9955 27.7511L101.378 16.2317ZM64.8911 16.2317L77.4536 23.3846L76.3568 27.7511L64.8911 16.2317ZM64.9739 52.8485L72.052 40.3102L76.3568 41.4122L64.9739 52.8485ZM83.1451 38.8755V66.9046L76.9983 40.8092L83.1451 34.5713H51.0247L76.9983 28.3541L83.1451 34.5713V2.25875L89.2918 28.3541L83.1451 34.5713V38.8755ZM83.1865 34.5921H115.348L89.2918 40.83L83.1865 34.5921ZM101.378 52.8485L88.8986 45.7788L89.9955 41.3914L101.378 52.8485Z" fill="white"/>
</svg>
